<?xml version="1.0" encoding="UTF-8"?>
<svg width="4.147mm" height="5.3527mm" version="1.1" viewBox="0 0 4.147 5.3527" xml:space="preserve" xmlns="http://www.w3.org/2000/svg"><g transform="translate(-13.301 -7.7525)"><g transform="matrix(.26458 0 0 .26458 59.971 72.701)"><path d="m-173.88-245.47c-0.32544-4e-3 -0.64901 0.0587-0.95117 0.18359-0.30216 0.12491-0.57768 0.31011-0.81054 0.54492s-0.41683 0.51526-0.54493 0.82422c-0.12809 0.30895-0.19733 0.6405-0.20117 0.97656v15.172c4e-3 0.336 0.0731 0.66756 0.20117 0.97656 0.1281 0.3089 0.31207 0.58942 0.54493 0.82422s0.50838 0.42002 0.81054 0.54492 0.62573 0.1876 0.95117 0.1836h10.658c0.3255 4e-3 0.64702-0.0587 0.94922-0.1836 0.3021-0.1249 0.57774-0.31012 0.81054-0.54492 0.2329-0.2348 0.41878-0.51532 0.54688-0.82422 0.1281-0.309 0.19737-0.64056 0.20117-0.97656v-10.621c-6e-4 -0.25068-0.0926-0.49223-0.25586-0.67773l-5.3281-6.0684c-0.0916-0.10478-0.20333-0.18861-0.32813-0.24609-0.1249-0.0575-0.25982-0.0876-0.39648-0.0879zm0 2.0234h5.3281v3.1856c-0.0158 0.74506 0.25463 1.4678 0.75195 2.0078 0.49733 0.54007 1.1829 0.85381 1.9043 0.875h3.2227v9.6094c-4e-3 0.0704-0.0212 0.13962-0.0508 0.20312-0.0296 0.0636-0.0721 0.12097-0.12305 0.16797-0.051 0.047-0.10923 0.0823-0.17383 0.10547-0.0645 0.0233-0.13297 0.0334-0.20117 0.0293h-10.658c-0.0682 4e-3 -0.13666-6e-3 -0.20117-0.0293-0.0645-0.0232-0.12287-0.0585-0.17383-0.10547-0.051-0.047-0.0934-0.10437-0.12304-0.16797-0.0296-0.0635-0.047-0.13272-0.0508-0.20312v-15.172c4e-3 -0.0704 0.0212-0.13956 0.0508-0.20312 0.0296-0.0636 0.0721-0.12099 0.12304-0.16797 0.051-0.047 0.10932-0.0823 0.17383-0.10547 0.0645-0.0232 0.13297-0.0334 0.20117-0.0293zm7.2871 1.0117 2.6856 3.0332h-1.959c-0.1026-6e-3 -0.20468-0.0332-0.29688-0.0801s-0.17273-0.11138-0.24023-0.19141c-0.0675-0.08-0.12015-0.17463-0.15235-0.27539-0.0323-0.10075-0.0451-0.20671-0.0371-0.3125zm-2.1465 5.8555c-0.25979 0-0.50967 0.10524-0.69336 0.29492-0.1837 0.18969-0.28711 0.44855-0.28711 0.7168v1.0098h-0.98047c-0.25978 0-0.50771 0.10718-0.6914 0.29687-0.1837 0.18968-0.28711 0.44658-0.28711 0.71484 0 0.26825 0.10341 0.52516 0.28711 0.71485 0.18369 0.18968 0.43162 0.29687 0.6914 0.29687h0.98047v1.0117c0 0.26826 0.10341 0.52517 0.28711 0.71485 0.18369 0.18969 0.43357 0.29687 0.69336 0.29687s0.50772-0.10718 0.69141-0.29687c0.1837-0.18968 0.28711-0.44659 0.28711-0.71485v-1.0117h0.98046c0.25978 0 0.50771-0.10719 0.69141-0.29687 0.1837-0.18969 0.28711-0.4466 0.28711-0.71485 0-0.26826-0.10341-0.52516-0.28711-0.71484-0.1837-0.18969-0.43163-0.29687-0.69141-0.29687h-0.98046v-1.0098c0-0.26825-0.10341-0.52711-0.28711-0.7168-0.18369-0.18968-0.43162-0.29492-0.69141-0.29492z" fill='white'/></g></g></svg>
